# xmcd
#
# Track frame offsets:
# 150
# 12958
# 25386
# 46929
# 57264
# 71529
# 81320
# 89678
# 102917
# 118015
# 128806
#
# Disc length: 1912 seconds
#
#
# Revision: 0
# Processed by: cddbd v1.5.1PL2 Copyright (c) Steve Scherf et al.
# Submitted via: Nero 7, 0, 5, 4 
#
DISCID=9207760b
DTITLE=Summer Wages - Can't Stop Now
DYEAR=2006
DGENRE=country
TTITLE0=She's No Angel
TTITLE1=My Heart
TTITLE2=Raining In Kentucky
TTITLE3=How Long Has It Been
TTITLE4=Garden In The Sky
TTITLE5=If I Lose
TTITLE6=Legend Of The Highway
TTITLE7=House On The Hill
TTITLE8=Blue-Eyed Darling
TTITLE9=The Land We're Living In
TTITLE10=The Last Song
EXTD=
EXTT0=
EXTT1=
EXTT2=
EXTT3=
EXTT4=
EXTT5=
EXTT6=
EXTT7=
EXTT8=
EXTT9=
EXTT10=
PLAYORDER=
